<svg width="1920" height="439" viewBox="0 0 1920 439" fill="none" xmlns="http://www.w3.org/2000/svg">
<path d="M883.26 94.9815L815.761 94.9816V12.5788C815.761 -0.579782 800.176 -3.01217 792.204 7.44921C784.759 17.2203 776.845 28.1225 753.578 61.1582C730.311 94.1939 686.425 99.9133 683.587 99.9133C672.28 99.9133 669.394 116.269 685.381 116.269H722.864V350.337C722.864 418.036 765.443 438.044 815.761 438.044C876.084 438.044 898.627 406.368 905.84 395.95C913.053 385.532 900.497 378.765 893.907 385.621C887.318 392.477 873.232 403.085 855.41 403.085C819.512 403.085 815.761 371.263 815.761 348.016V116.269L883.26 116.269C898.744 116.269 898.26 94.9815 883.26 94.9815Z" fill="white" style="fill:white;fill-opacity:1;"/>
<path d="M1678.34 143.073C1729.66 101.071 1766.64 94.2666 1793.54 94.2666C1828.63 94.2664 1887.58 108.126 1887.58 192.104V387.216C1887.58 403.239 1892.32 416.709 1912.94 422.422C1923.01 425.214 1922.27 438.043 1910.98 438.043H1769.87C1757.79 438.043 1758.16 424.571 1768.21 422.422C1778.58 420.203 1793.96 411.791 1793.96 388.938V179.918C1793.96 157.563 1786.53 135.098 1747.61 135.098C1734.23 135.098 1705.85 140.277 1677.6 164.762L1677.57 387.216C1677.57 403.239 1682.32 416.709 1702.93 422.422C1713 425.214 1712.26 438.043 1700.98 438.043H1559.87C1547.79 438.043 1548.15 424.571 1558.2 422.422C1568.58 420.203 1583.95 411.791 1583.95 388.938L1584.29 192.104C1584.29 154.812 1573.78 152.438 1559.87 149.296C1559.38 149.186 1558.89 149.075 1558.4 148.962C1547.21 146.399 1548.3 135.031 1556.63 132.081C1564.22 129.395 1574.22 125.831 1585.01 121.983C1612.86 112.053 1646 100.236 1656.68 96.7702C1675.19 90.7589 1678.34 100.858 1678.34 105.907V143.073Z" fill="white" style="fill:white;fill-opacity:1;"/>
<path d="M1380.94 203.603C1380.94 183.836 1403.53 155.924 1418.79 155.924C1424.58 155.924 1430.15 156.62 1442.44 171.921C1454.73 187.223 1472.12 192.555 1486.96 192.555C1501.8 192.555 1530.78 183.05 1530.78 145.723C1530.78 108.396 1505.51 94.7178 1478.61 94.7178C1451.83 94.7178 1411.81 113.17 1381.06 166.016C1381.12 145.381 1381.16 125.306 1381.16 105.909C1381.16 100.859 1378.02 90.7602 1359.5 96.7714C1348.83 100.237 1315.69 112.054 1287.84 121.984C1277.04 125.832 1267.05 129.397 1259.46 132.083C1251.12 135.033 1250.04 146.4 1261.23 148.963C1261.72 149.076 1262.21 149.187 1262.7 149.297C1276.61 152.44 1287.12 154.814 1287.12 192.105L1286.78 388.939C1286.78 411.792 1271.4 420.204 1261.03 422.423C1250.98 424.572 1250.61 438.045 1262.69 438.045H1403.8C1415.09 438.045 1415.83 425.216 1405.76 422.423C1385.14 416.71 1380.4 403.24 1380.4 387.218C1380.4 335.393 1380.61 284.407 1380.81 235.596C1380.85 224.34 1380.9 214.612 1380.94 203.603Z" fill="white" style="fill:white;fill-opacity:1;"/>
<path fill-rule="evenodd" clip-rule="evenodd" d="M1092.61 256.586C1132.16 256.857 1174.41 257.147 1200.56 257.147C1207.66 257.147 1219.69 253.207 1219.69 234.697C1222.43 184.658 1198.49 84.5796 1080.85 84.5796C972.193 84.5796 908.012 174.015 908.012 260.174C908.012 373.611 972.995 438.042 1076.85 438.042C1099.06 438.194 1150.62 430.351 1179.72 403.004C1204.83 379.413 1209.32 370.927 1211.84 366.163C1212.11 365.651 1212.36 365.183 1212.6 364.743C1217.29 356.44 1208.58 346.323 1199.53 354.371C1176.01 377.481 1155.9 390.974 1109.18 390.974C1040.73 390.974 1007.35 350.813 1007.35 256.124C1025.14 256.124 1057.83 256.348 1092.61 256.586ZM1007.61 237.151H1102.45C1114.68 237.151 1133.97 233.348 1133.97 206.177C1133.97 161.616 1131.85 104.558 1075.55 104.558C1019.24 104.558 1007.61 165.855 1007.61 237.151Z" fill="white" style="fill:white;fill-opacity:1;"/>
<path fill-rule="evenodd" clip-rule="evenodd" d="M184.598 256.584C224.144 256.854 266.397 257.144 292.545 257.144C299.647 257.144 311.682 253.204 311.682 234.694C314.419 184.655 290.48 84.5769 172.833 84.5769C64.181 84.5769 0 174.012 0 260.171C0 373.609 64.9827 438.04 168.834 438.04C191.048 438.192 242.605 430.349 271.712 403.001C296.82 379.41 301.306 370.924 303.825 366.16C304.095 365.649 304.343 365.18 304.591 364.741C309.276 356.437 300.571 346.32 291.518 354.368C267.997 377.478 247.89 390.971 201.17 390.971C132.72 390.971 99.3371 350.81 99.3371 256.121C117.129 256.121 149.816 256.345 184.598 256.584ZM99.5925 237.149H194.428C206.657 237.149 225.95 233.345 225.95 206.174C225.95 161.614 223.83 104.555 167.527 104.555C111.223 104.555 99.5925 165.852 99.5925 237.149Z" fill="white" style="fill:white;fill-opacity:1;"/>
<path d="M398.499 341.142C401.948 335.73 409.853 335.744 413.283 341.167L466.062 424.615C469.75 430.445 465.561 438.051 458.663 438.051H405.911H352.712C345.801 438.051 341.614 430.419 345.328 424.59L398.499 341.142Z" fill="#18DD4C" style="fill:#18DD4C;fill:color(display-p3 0.0938 0.8662 0.2979);fill-opacity:1;"/>
<path d="M567.09 191.627C570.538 197.038 578.443 197.025 581.874 191.602L634.653 108.154C638.34 102.324 634.151 94.7177 627.253 94.7177H574.501H521.303C514.391 94.7177 510.205 102.35 513.919 108.178L567.09 191.627Z" fill="white" style="fill:white;fill-opacity:1;"/>
<path d="M466.479 146.553C440.238 102.431 401.492 94.2666 383.845 94.2666C376.932 94.2666 324.743 94.3692 321.345 94.3692C308.818 94.3692 309.56 107.72 318.749 111.113C342.777 119.982 360.726 141.255 374.115 162.41C383.845 177.784 504.717 372.601 513.31 385.757C541.994 429.669 578.296 438.043 595.943 438.043C602.857 438.043 655.045 437.941 658.443 437.941C670.971 437.941 670.229 424.59 661.04 421.197C637.012 412.327 619.792 390.558 605.674 369.9C595.943 355.663 513.798 223.045 466.479 146.553Z" fill="white" style="fill:white;fill-opacity:1;"/>
</svg>
