<?xml version="1.0" encoding="UTF-8"?>
<svg width="128px" height="128px" viewBox="0 0 128 128" version="1.1" xmlns="http://www.w3.org/2000/svg" xmlns:xlink="http://www.w3.org/1999/xlink">
    <title>avatar</title>
    <g id="avatar-1-pc" stroke="none" stroke-width="1" fill="none" fill-rule="evenodd">
        <g id="avatar-1-pdf" transform="translate(-364.000000, -1940.000000)">
            <g id="avatar" transform="translate(364.000000, 1940.000000)">
                <circle id="avatar-2" stroke="#DDDDDD" stroke-width="1.42222222" fill="#EEEEEE" cx="64" cy="64" r="63.2888889"></circle>
                <g id="avatar-3" transform="translate(36.800000, 33.000000)" fill="#FFFFFF" fill-rule="nonzero">
                    <path d="M27.200041,32.794418 C36.1994264,32.794418 43.4938099,25.5000346 43.4938099,16.5006491 C43.4938099,7.50126362 36.1994264,0.206880128 27.200041,0.206880128 C18.2006555,0.206880128 10.906272,7.50126362 10.906272,16.5006491 C10.906272,25.5000346 18.2006555,32.794418 27.200041,32.794418 Z M27.200041,40.3981769 C12.1987735,40.3981769 0.036884352,45.1900575 0.036884352,51.0956893 C0.036884352,57.0013212 12.1987735,61.8000768 27.200041,61.8000768 C42.2013084,61.8000768 54.3631976,57.0081962 54.3631976,51.1025644 C54.3631976,45.1969325 42.2013084,40.3981769 27.200041,40.3981769 Z" id="avatar-99"></path>
                </g>
            </g>
        </g>
    </g>
</svg>