<?xml version="1.0" encoding="UTF-8"?>
<svg width="24px" height="24px" viewBox="0 0 24 24" version="1.1" xmlns="http://www.w3.org/2000/svg" xmlns:xlink="http://www.w3.org/1999/xlink">
    <title>IconRefres</title>
    <g id="IconRefres" stroke="none" stroke-width="1" fill="none" fill-rule="evenodd">
        <g transform="translate(0.000000, 0.000000)">
            <path d="M0.00291621452,11.9902281 C0.00291621452,10.1155171 -0.00364526815,8.24080602 0.00291621452,6.36609498 C-0.000855476148,5.458924 0.110645142,4.55494944 0.334739841,3.67588464 C0.825913793,1.81523393 2.03791364,0.711029125 3.89668835,0.282657653 C4.82870208,0.0812877063 5.78065248,-0.0130582937 6.73406154,0.00145099696 C10.3291299,0.00145099696 13.9245108,0.00145099696 17.520204,0.00145099696 C18.4282917,-0.00418604304 19.3337475,0.0996723569 20.216974,0.310778319 C22.13199,0.779456079 23.2811871,1.99239413 23.7189318,3.90084997 C23.9157326,4.80281845 24.0097548,5.72417301 23.999201,6.64730165 C23.999201,10.2811165 23.999201,13.9152439 23.999201,17.5496837 C24.0041104,18.4490183 23.9005666,19.3456644 23.6908112,20.2202096 C23.2221338,22.1361643 22.0035724,23.279738 20.0951179,23.717483 C19.1629846,23.9180909 18.2111214,24.0124282 17.2577447,23.9986897 C13.677674,23.9986897 10.0979157,23.9986897 6.51846992,23.9986897 C5.60344091,24.0061581 4.69081717,23.9038813 3.8001408,23.6940492 C1.8766886,23.2253714 0.721867404,22.0068092 0.285060033,20.0889798 C0.0619695745,19.1141301 0.00291621452,18.1364683 0.00291621452,17.1503703 C0.00291621452,15.4306354 0.00291621452,13.7105879 0.00291621452,11.9902281 Z" id="path1" fill-opacity="0" fill="#FFFFFF" fill-rule="nonzero"></path>
            <path d="M2.00243017,11.9918567 C2.00243017,10.4295975 1.99696227,8.86733835 2.00243017,7.30507915 C1.99928709,6.54910333 2.09220428,5.79579119 2.27894986,5.0632372 C2.68826149,3.51269493 3.69826136,2.59252426 5.24724029,2.23554803 C6.02391839,2.06773975 6.81721039,1.98911808 7.61171795,2.00120915 C10.6076083,2.00120915 13.603759,2.00120915 16.60017,2.00120915 C17.3569097,1.99651162 18.1114562,2.08306029 18.8474784,2.25898192 C20.443325,2.64954672 21.4009892,3.66032843 21.7657765,5.2507083 C21.9297772,6.0023487 22.008129,6.77014417 21.9993341,7.53941804 C21.9993341,10.5675971 21.9993341,13.5960366 21.9993341,16.6247364 C22.0034254,17.3741819 21.9171388,18.121387 21.7423427,18.8501747 C21.3517781,20.4468036 20.3363104,21.3997817 18.7459316,21.7645692 C17.9691539,21.9317424 17.1759345,22.0103568 16.3814539,21.9989081 C13.3980616,21.9989081 10.4149298,21.9989081 7.43205826,21.9989081 C6.66953408,22.0051318 5.90901431,21.9199011 5.166784,21.745041 C3.56390716,21.3544762 2.60155616,20.3390077 2.23755002,18.7408165 C2.0516413,17.9284417 2.00243017,17.1137236 2.00243017,16.2919752 C2.00243017,14.8588628 2.00243017,13.42549 2.00243017,11.9918567 Z" id="path2" fill-opacity="0" fill="#FFFFFF"></path>
            <path d="M12,1.25 C17.9370611,1.25 22.75,6.06293894 22.75,12 C22.75,12.5713555 22.144451,12.919912 21.658838,12.6683431 L21.5693682,12.6140491 L18.5258899,10.4796617 C18.18676,10.2418303 18.1046413,9.77411077 18.3424727,9.43498084 C18.558683,9.1266809 18.9648836,9.03078694 19.2917447,9.19458585 L19.3871535,9.25156359 L21.123,10.469 L21.116039,10.4226022 C20.3820947,6.15082283 16.7185948,2.88041573 12.2679652,2.75380684 L12,2.75 C6.89136606,2.75 2.75,6.89136606 2.75,12 C2.75,17.1086339 6.89136606,21.25 12,21.25 C14.5865622,21.25 17.0008137,20.1839632 18.7385844,18.3367596 C19.0224048,18.0350663 19.4970574,18.0205773 19.7987508,18.3043976 C20.1004442,18.588218 20.1149331,19.0628706 19.8311128,19.364564 C17.8127336,21.5100468 15.0046139,22.75 12,22.75 C6.06293894,22.75 1.25,17.9370611 1.25,12 C1.25,6.06293894 6.06293894,1.25 12,1.25 Z" id="路径" fill="#393939" fill-rule="nonzero"></path>
        </g>
    </g>
</svg>